Coordinates
version=1
nRows=21
nColumns=12
inDegrees=yes

Units are S.I. units (second, meters, Newtons, ...)
Angles are in degrees

endheader
time	SC_y	SC_z	SC_x	AC_y	AC_z	AC_x	GH_y	GH_z	GH_yy	EL_x	PS_y
       0.0              -37.77          1.186          65.96          30.64         -14.94         -8.097         -17.46          66.19         -122.2          86.07          153.1
   0.01278              -37.77          1.186          65.96          30.64         -14.93         -8.099         -17.46          66.18         -122.2          86.07          153.1
   0.02555              -37.77          1.185          65.95          30.64         -14.93           -8.1         -17.45          66.17         -122.2          86.07          153.1
   0.03833              -37.76          1.185          65.95          30.65         -14.93         -8.102         -17.44          66.16         -122.2          86.07          153.1
    0.0511              -37.76          1.184          65.95          30.65         -14.92         -8.104         -17.43          66.15         -122.2          86.07          153.1
   0.06388              -37.75          1.184          65.94          30.65         -14.92         -8.106         -17.43          66.14         -122.2          86.07          153.1
   0.07665              -37.75          1.183          65.94          30.66         -14.91         -8.108         -17.42          66.13         -122.2          86.07          153.1
   0.08943              -37.75          1.182          65.94          30.66         -14.91          -8.11         -17.41          66.11         -122.2          86.07          153.1
    0.1022              -37.74          1.182          65.93          30.67         -14.91         -8.112          -17.4           66.1         -122.2          86.07          153.1
     0.115              -37.74          1.181          65.93          30.67          -14.9         -8.115         -17.39          66.08         -122.2          86.07          153.0
    0.1278              -37.73           1.18          65.92          30.68         -14.89         -8.117         -17.38          66.07         -122.2          86.07          153.0
    0.1405              -37.73           1.18          65.92          30.68         -14.89          -8.12         -17.36          66.05         -122.2          86.06          153.0
    0.1533              -37.72          1.179          65.91          30.69         -14.88         -8.123         -17.35          66.03         -122.2          86.06          153.0
    0.1661              -37.71          1.178          65.91          30.69         -14.88         -8.127         -17.34          66.01         -122.2          86.06          153.0
    0.1789              -37.71          1.177           65.9           30.7         -14.87          -8.13         -17.32          65.99         -122.2          86.06          153.0
    0.1916               -37.7          1.176           65.9          30.71         -14.86         -8.134          -17.3          65.96         -122.1          86.06          153.0
    0.2044              -37.69          1.174          65.89          30.72         -14.85         -8.138         -17.29          65.94         -122.1          86.06          152.9
    0.2172              -37.68          1.173          65.88          30.73         -14.84         -8.143         -17.27          65.91         -122.1          86.06          152.9
      0.23              -37.67          1.172          65.87          30.74         -14.83         -8.148         -17.24          65.88         -122.1          86.06          152.9
    0.2427              -37.66           1.17          65.86          30.75         -14.82         -8.153         -17.22          65.84         -122.1          86.06          152.9
    0.2555              -37.65          1.168          65.85          30.76         -14.81          -8.16          -17.2           65.8         -122.1          86.06          152.9
